<?xml version="1.0" encoding="UTF-8" standalone="no"?>
<svg width="32px" height="32px" viewBox="0 0 32 32" version="1.1" xmlns="http://www.w3.org/2000/svg" xmlns:xlink="http://www.w3.org/1999/xlink" xmlns:sketch="http://www.bohemiancoding.com/sketch/ns">
    <!-- Generator: Sketch 3.0.4 (8053) - http://www.bohemiancoding.com/sketch -->
    <title>google-plus</title>
    <desc>Created with Sketch.</desc>
    <defs></defs>
    <g id="Page-1" stroke="none" stroke-width="1" fill="none" fill-rule="evenodd" sketch:type="MSPage">
        <g id="google-plus-icon" sketch:type="MSLayerGroup" fill="#383838">
            <path d="M32,6.91857426 L27.7575922,6.91857426 L27.7575922,11.2450693 L25.6363495,11.2450693 L25.6363495,6.91857426 L21.3938641,6.91857426 L21.3938641,4.75532673 L25.6363495,4.75532673 L25.6363495,0.428990099 L27.7575922,0.428990099 L27.7575922,4.75540594 L32,4.75540594 L32,6.91857426 L32,6.91857426 Z M20.0064466,24.8126733 C20.0064466,28.0556832 17.102835,32.0037228 9.79798058,32.0037228 C4.45553398,32.0037228 0,29.6537822 0,25.7012277 C0,22.6506139 1.89382524,18.6904554 10.743534,18.6904554 C9.42920388,17.5980198 9.10664078,16.070495 9.90990291,14.4164752 C4.72823301,14.4164752 2.07464078,11.3097822 2.07464078,7.36514851 C2.07464078,3.50526733 4.8895534,-0.00372277228 10.6299806,-0.00372277228 L19.8259417,-0.00372277228 L17.7710291,2.19588119 L15.3571262,2.19588119 C17.0600388,3.19089109 17.9657476,5.24007921 17.9657476,7.49877228 C17.9657476,9.5720396 16.8462913,11.2512475 15.2486214,12.5109703 C12.4134369,14.7463762 13.1392621,15.9945347 16.1097476,18.203802 C19.0385243,20.441505 20.0064466,22.1688713 20.0064466,24.8126733 L20.0064466,24.8126733 Z M14.2709126,7.63984158 C13.8432621,4.32063366 11.7228738,1.59754455 9.24535922,1.52158416 C6.76699029,1.44641584 5.10485437,3.98645545 5.5328932,7.30653465 C5.9607767,10.6257426 8.3161165,12.944396 10.7949515,13.0205149 C13.2723883,13.0956832 14.6984078,10.9594455 14.2709126,7.63984158 L14.2709126,7.63984158 Z M16.8257087,25.1455842 C16.8257087,22.415604 14.3836893,19.8135446 10.2865243,19.8135446 C6.59394175,19.7721188 3.46462136,22.1931089 3.46462136,24.9993663 C3.46462136,27.8630495 6.13141748,30.2468911 9.82415534,30.2468911 C14.5450097,30.2468119 16.8257087,28.0092673 16.8257087,25.1455842 L16.8257087,25.1455842 Z" id="Shape" sketch:type="MSShapeGroup"></path>
        </g>
    </g>
</svg>