<?xml version="1.0" encoding="UTF-8" standalone="no"?>
<svg width="32px" height="28px" viewBox="0 0 32 28" version="1.1" xmlns="http://www.w3.org/2000/svg" xmlns:xlink="http://www.w3.org/1999/xlink" xmlns:sketch="http://www.bohemiancoding.com/sketch/ns">
    <!-- Generator: Sketch 3.3.1 (12002) - http://www.bohemiancoding.com/sketch -->
    <title>rdio</title>
    <desc>Created with Sketch.</desc>
    <defs></defs>
    <g id="Page-1" stroke="none" stroke-width="1" fill="none" fill-rule="evenodd" sketch:type="MSPage">
        <path d="M31.433,6.156 C27.013,5.932 23.233,3.791 20.693,2.192 C20.423,2.014 20.143,1.845 19.863,1.687 L19.863,11.643 C19.863,14.935 17.873,17.558 15.613,18.648 C12.333,20.231 8.683,19.238 7.453,16.429 C6.233,13.62 7.893,10.061 11.173,8.48 C12.983,7.605 14.913,7.52 16.473,8.092 L16.473,0.368 C15.483,0.132 14.453,0 13.393,0 C5.993,0 -1.13686838e-13,6.073 -1.13686838e-13,13.565 C-1.13686838e-13,21.057 5.993,27.129 13.393,27.129 C20.793,27.129 26.783,21.057 26.783,13.565 C26.783,12.961 26.743,12.366 26.673,11.783 C30.763,10.575 33.153,6.243 31.433,6.156 Z" id="Fill-577" fill="#FFFFFF" sketch:type="MSShapeGroup"></path>
    </g>
</svg>