<?xml version="1.0" encoding="UTF-8" standalone="no"?>
<svg width="30px" height="28px" viewBox="0 0 30 28" version="1.1" xmlns="http://www.w3.org/2000/svg" xmlns:xlink="http://www.w3.org/1999/xlink" xmlns:sketch="http://www.bohemiancoding.com/sketch/ns">
    <!-- Generator: Sketch 3.0.4 (8053) - http://www.bohemiancoding.com/sketch -->
    <title>twitter</title>
    <desc>Created with Sketch.</desc>
    <defs></defs>
    <g id="Page-1" stroke="none" stroke-width="1" fill="none" fill-rule="evenodd" sketch:type="MSPage">
        <path d="M32,3.78338209 C30.8226796,4.32531642 29.5573592,4.69162985 28.2293592,4.85612836 C29.5846214,4.01300299 30.6257864,2.67799403 31.1158835,1.08708955 C29.847301,1.86783284 28.4423301,2.43475224 26.9468738,2.74021493 C25.7493592,1.41616716 24.0431068,0.589 22.1547961,0.589 C17.9171262,0.589 14.8019417,4.69267761 15.7596893,8.95392239 C10.3033786,8.66989851 5.46578641,5.95756716 2.22780583,1.83607761 C0.508038835,4.89739403 1.33576699,8.90371045 4.25949515,10.9314507 C3.18345631,10.8961493 2.17087379,10.5896388 1.28590291,10.0792179 C1.21467961,13.2355582 3.3943301,16.1869403 6.55153398,16.8452567 C5.62757282,17.1061493 4.61553398,17.1658716 3.58687379,16.9618806 C4.42213592,19.6683284 6.84683495,21.6379582 9.71968932,21.6928448 C6.95953398,23.937391 3.48318447,24.9399373 0,24.5139821 C2.90532039,26.4468597 6.35627184,27.5748149 10.063767,27.5748149 C22.2526602,27.5748149 29.1391068,16.8916 28.7240388,7.30990448 C30.0069126,6.34942985 31.1198447,5.14958209 32,3.78338209 L32,3.78338209 Z" id="twitter-icon" fill="#383838" sketch:type="MSShapeGroup"></path>
    </g>
</svg>