<?xml version="1.0" encoding="UTF-8" standalone="no"?>
<svg width="220px" height="210px" viewBox="0 0 220 210" version="1.1" xmlns="http://www.w3.org/2000/svg" xmlns:xlink="http://www.w3.org/1999/xlink" xmlns:sketch="http://www.bohemiancoding.com/sketch/ns">
    <!-- Generator: Sketch 3.0.4 (8053) - http://www.bohemiancoding.com/sketch -->
    <title>australia-map</title>
    <desc>Created with Sketch.</desc>
    <defs></defs>
    <g id="Page-1" stroke="none" stroke-width="1" fill="none" fill-rule="evenodd" sketch:type="MSPage">
        <g id="icon_27169" sketch:type="MSLayerGroup" transform="translate(0.000000, -1.000000)" fill="#CCCCCC">
            <g id="Capa_7" sketch:type="MSShapeGroup">
                <g id="Group">
                    <path d="M162.7164,0.9658 L169.081,22.0506 L177.8194,28.4064 L184.5888,52.272 L208.8636,75.7548 L220,105.6022 L200.497,168.4584 L175.0408,174.8252 L149.1842,166.0648 L132.0836,140.602 L122.5202,148.1546 L101.0636,127.8706 L61.2678,132.6468 L30.6328,145.7852 L19.0982,150.5592 L9.548,143.4048 L0,86.4952 L7.9574,63.8242 L42.1696,51.8936 L69.6212,21.2498 L82.3526,23.2452 L107.0146,6.1402 L127.3074,12.496 L126.5088,30.008 L149.985,40.3414 L155.5598,7.3216 L162.7164,0.9658 Z" id="Shape"></path>
                    <path d="M175.0408,189.9282 L193.3404,192.3328 L185.394,210.2342 L177.0296,207.4468 L175.0408,189.9282 Z" id="Shape"></path>
                </g>
            </g>
        </g>
    </g>
</svg>